<?xml version="1.0" encoding="UTF-8" standalone="no"?>
<svg
   t="1712070225335"
   class="icon"
   viewBox="0 0 1024 1024"
   version="1.1"
   p-id="23127"
   width="256"
   height="256"
   id="svg11"
   sodipodi:docname="logo.svg"
   inkscape:version="1.3.2 (091e20e, 2023-11-25)"
   xmlns:inkscape="http://www.inkscape.org/namespaces/inkscape"
   xmlns:sodipodi="http://sodipodi.sourceforge.net/DTD/sodipodi-0.dtd"
   xmlns="http://www.w3.org/2000/svg"
   xmlns:svg="http://www.w3.org/2000/svg">
  <defs
     id="defs11" />
  <sodipodi:namedview
     id="namedview11"
     pagecolor="#ffffff"
     bordercolor="#000000"
     borderopacity="0.25"
     inkscape:showpageshadow="2"
     inkscape:pageopacity="0.0"
     inkscape:pagecheckerboard="0"
     inkscape:deskcolor="#d1d1d1"
     showgrid="false"
     inkscape:zoom="2.4765625"
     inkscape:cx="127.79811"
     inkscape:cy="128"
     inkscape:window-width="1440"
     inkscape:window-height="847"
     inkscape:window-x="0"
     inkscape:window-y="25"
     inkscape:window-maximized="1"
     inkscape:current-layer="svg11" />
  <path
     d="m 456.90595,149.49598 -1e-5,406.4 H 184.80596 l -1e-5,-406.39999 c 0,-30.9 25,-55.900001 55.89999,-55.899994 l 160.30001,-1.2e-5 c 30.90001,1.3e-5 55.9,24.999996 55.9,55.899996 z"
     fill="#62c9cc"
     p-id="23128"
     id="path1" />
  <path
     d="m 896.90589,164.39598 v 114.20001 c 10e-5,27.50001 -20,51.00001 -47.19996,55.2 L 375.00596,408.39598 V 180.99599 L 832.406,109.09596 c 33.79999,-5.30001 64.49999,21.00002 64.49989,55.30002 z"
     fill="#62c9cc"
     p-id="23129"
     id="path2" />
  <path
     d="m 401.00595,79.595991 -160.29999,-2e-6 c -38.50001,3e-6 -69.90001,31.399991 -69.90002,69.900001 l 1e-5,29.79999 c 1e-5,7.7 6.3,14.00001 14,14.00001 7.7,0 14,-6.30001 14.00001,-14 l -2e-5,-29.8 c 1e-5,-23.1 18.80002,-41.90001 41.90002,-41.90001 l 160.29999,1e-5 c 23.1,0 41.9,18.79999 41.90001,41.9 l -2e-5,288 H 198.70597 l -1e-5,-183.60001 c -1e-5,-7.69999 -6.30001,-13.99999 -14.00001,-14 -7.7,1e-5 -13.99999,6.3 -14,14 v 350.5 c 0,63.40001 47.1,115.90001 108.1,124.60001 v 14.6 c -6.39999,-1.3 -13.1,2 -15.69999,8.29999 -3,7.10002 0.39999,15.30001 7.5,18.30001 l 8.2,3.39999 -1e-5,22.20001 c -6.4,-1.3 -13.09999,2 -15.69999,8.3 -3.00001,7.09999 0.39998,15.3 7.49999,18.29999 l 8.2,3.40001 -10e-6,22.19998 c -6.4,-1.29999 -13.1,2.00002 -15.69999,8.30002 -3,7.1 0.4,15.3 7.50001,18.3 l 8.2,3.4 -1e-5,47.09999 c 0,3.00001 0.99999,6.00001 2.79999,8.39999 l 28.00001,37.30002 c 5.5,7.3 16.9,7.3 22.4,0 l 28,-37.3 c 1.80001,-2.4 2.8,-5.40002 2.8,-8.40001 v -12.49999 c 6.4,1.3 13.1,-2 15.7,-8.30001 2.90001,-7 -0.5,-15.39999 -7.5,-18.29999 l -8.2,-3.40001 -10e-6,-22.2 c 6.4,1.3 13.10002,-2 15.70001,-8.3 2.9,-7 -0.5,-15.39998 -7.50001,-18.3 l -8.2,-3.39999 2e-5,-22.2 c 6.4,1.3 13.09999,-2.00001 15.69999,-8.3 2.9,-7.00001 -0.5,-15.40001 -7.49999,-18.30001 l -8.20001,-3.39999 1e-5,-49.3 c 61,-8.6 108.09999,-61.20001 108.09997,-124.60001 l 2e-5,-138.89999 127.70001,-10e-6 c 7.7,0 13.99999,-6.29998 14,-14 v -66.2 l 31.10001,-4.89999 c 7.69998,-1.2 12.99999,-8.80001 11.59999,-16.5 -1.4,-7.29999 -8.60002,-12.30001 -15.90001,-11.10001 l -168.39999,26.50002 -1e-5,-199.10002 65.20001,-10.3 v 92.20001 c -10e-6,8.4 7.69999,15.09999 16,13.79999 l 48.49998,-7.19999 c 6.80001,-1.00001 11.89999,-6.90003 11.90001,-13.8 v -97 l 24.2,-3.8 v 93 c 0,8.4 7.7,15.1 16,13.80001 l 48.50002,-7.20001 c 6.79998,-1.00001 11.89998,-6.90002 11.89998,-13.8 l 2e-5,-97.79999 24.19999,-3.80001 -1e-5,93.8 c 0,8.4 7.7,15.09999 15.99999,13.8 l 48.50001,-7.2 c 6.80002,-1.00002 11.89999,-6.90003 11.90004,-13.80001 l -6e-5,-98.59999 20.50001,-3.19999 c 12.10002,-1.90007 24.4,1.59995 33.80005,9.59996 9.3,7.99995 14.6999,19.6 14.7,31.89999 l -10e-5,114.10006 c 10e-5,20.79994 -14.8999,38.19997 -35.39994,41.39997 l -118.7,18.60001 c -7.59999,1.2 -12.8,8.39998 -11.6,15.99999 1.2,7.6 8.4,12.80002 16,11.6 l 118.70004,-18.60001 c 34.1999,-5.39996 59.1,-34.40001 59.1,-69.1 l -10e-5,-114.2 c 10e-5,-20.5 -8.8999,-39.80002 -24.5,-53.09998 -15.5999,-13.300013 -36.09998,-19.099985 -56.29995,-15.899989 l -359.2,56.399979 2e-5,-2.3 c -10e-6,-38.39999 -31.30001,-69.799987 -69.9,-69.800005 z"
     fill=""
     p-id="23130"
     id="path3" />
  <path
     d="M 584.60594,437.49599 H 470.90595 v -29.9 l 113.7,-17.90001 z"
     fill="#eb6836"
     p-id="23131"
     id="path4" />
  <path
     d="m 442.90594,604.39599 c 1e-5,54 -43.89999,97.9 -97.89999,97.89999 h -48.5 c -54.00001,0 -97.9,-43.89999 -97.9,-97.9 v -71.79999 l 40.99999,-10e-6 1e-5,64.30001 c 0,7.69999 6.3,14 14,14 7.70001,-10e-6 14,-6.3 14,-14.00001 l -1e-5,-64.3 39.10001,10e-6 v 83 c 2e-5,7.7 6.30001,13.99999 14,14.00001 7.70001,-10e-6 14,-6.30001 14,-14.00001 l -10e-6,-83.00001 h 39.1 l 2e-5,64.3 c -1e-5,7.70001 6.29999,14.00001 13.99999,14.00001 7.7,-10e-6 14,-6.3 14.00001,-14.00001 l -2e-5,-64.3 41,10e-6 z"
     fill="#b2b2b2"
     p-id="23132"
     id="path5" />
  <path
     d="m 198.70596,504.596 -1e-5,-39.10002 244.2,1e-5 v 39.09999 z"
     fill="#f7d04a"
     p-id="23133"
     id="path6" />
  <path
     d="m 456.90596,451.49599 -10e-6,-74.6 h 50.3 v 74.59998 z"
     fill=""
     p-id="23134"
     id="path7" />
  <path
     d="m 268.00596,437.39599 -1e-5,-327.80001 h 105.60001 l -2e-5,327.79999 z"
     fill="#ffffff"
     p-id="23135"
     id="path8" />
  <path
     d="M 306.90596,754.89598 V 730.196 l 27.89999,-10e-6 V 766.596 Z m -10e-6,52.2 -1e-5,-21.9 27.90002,11.7 -2e-5,21.9 z m 10e-6,52.20001 -10e-6,-21.90001 27.9,11.70001 1e-5,21.89999 z m 13.89999,79.69999 -13.9,-18.59999 -1e-5,-30.8 27.9,11.69999 10e-6,19.10001 z"
     fill="#808080"
     p-id="23136"
     id="path9" />
  <path
     d="m 786.00595,212.69599 -20.49999,3.09999 1e-5,-82.00001 20.50001,-3.19999 z m -100.7,14.99999 -20.50001,3.1 1e-5,-81.09999 20.5,-3.3 z m -100.7,15.10001 -20.50001,2.99999 10e-6,-80.3 20.50001,-3.3 z"
     fill="#f7d04a"
     p-id="23137"
     id="path10" />
  <path
     d="m 275.20596,485.09599 c -2e-5,-7.7 -6.30001,-14.00001 -14.00001,-14 h -14.9 c -7.69999,1e-5 -14,6.3 -14,13.99999 0,7.70001 6.3,14.00001 14,14.00001 l 14.9,-10e-6 c 7.7,-0.1 14,-6.3 14.00001,-13.99999 z m 67.09999,0 c 1e-5,-7.70001 -6.3,-14 -14,-14 l -14.89999,-2e-5 c -7.70001,10e-6 -14.00001,6.30002 -14.00002,14.00001 1e-5,7.70001 6.30002,14.00001 14.00002,13.99999 l 14.9,3e-5 c 7.69999,-0.10002 13.99999,-6.30001 13.99999,-14.00001 z m 67.10001,1e-5 c 0,-7.70001 -6.29999,-14.00002 -14.00001,-14.00001 l -14.9,-10e-6 c -7.70001,2e-5 -14,6.29999 -14,14.00001 -2e-5,7.69999 6.3,13.99998 14.00001,14 l 14.9,-10e-6 c 7.7,-0.1 13.99999,-6.3 14,-13.99998 z"
     fill=""
     p-id="23138"
     id="path11" />
</svg>
